<?xml version="1.0" encoding="utf-8"?>
<!-- Generator: Adobe Illustrator 28.1.0, SVG Export Plug-In . SVG Version: 6.00 Build 0)  -->
<svg version="1.1" id="Layer_1" xmlns:serif="http://www.serif.com/"
	 xmlns="http://www.w3.org/2000/svg" xmlns:xlink="http://www.w3.org/1999/xlink" x="0px" y="0px" viewBox="0 0 643 643"
	 style="enable-background:new 0 0 643 643;" xml:space="preserve">
<style type="text/css">
	.st0{fill:#009A17;}
</style>
<g transform="matrix(4.16667,0,0,4.16667,3816.88,1103.2)">
	<g id="Layer-1" serif:id="Layer 1">
		<g>
			<path class="st0" d="M-764.9-162.5c0,22-11,33-24.6,33c-13.6,0-24.6-11-24.6-33c0,22-11,33-24.6,33c-13.6,0-24.6-11-24.6-33
				c0,22-11,33-24.6,33c-13.6,0-24.6-11-24.6-33v-49.9c0-22,11-33,24.6-33c13.6,0,24.6,11,24.6,33c0-22,11-33,24.6-33
				c13.6,0,24.6,11,24.6,33c0-22,11-33,24.6-33c13.6,0,24.6,11,24.6,33"/>
		</g>
	</g>
</g>
</svg>
