<?xml version="1.0" encoding="utf-8"?>
<!-- Generator: Adobe Illustrator 28.1.0, SVG Export Plug-In . SVG Version: 6.00 Build 0)  -->
<svg version="1.1" id="Layer_1" xmlns:serif="http://www.serif.com/"
	 xmlns="http://www.w3.org/2000/svg" xmlns:xlink="http://www.w3.org/1999/xlink" x="0px" y="0px" viewBox="0 0 966 231"
	 style="enable-background:new 0 0 966 231;" xml:space="preserve">
<style type="text/css">
	.st0{fill:#009A17;}
</style>
<g transform="matrix(4.16667,0,0,4.16667,52.6617,-754.638)">
	<g id="Layer-1" serif:id="Layer 1">
		<g>
			<g transform="matrix(1,0,0,1,212.859,303.047)">
				<path class="st0" d="M-181.9-79.1c-0.8,0-1.5-0.4-2.1-1.1c-0.6-0.7-0.9-1.6-0.9-2.7v-19.5c0-2.1-0.4-3.8-1.2-5.2
					c-0.8-1.4-1.8-2.3-2.8-2.9c-1.1-0.5-2.1-0.8-3-0.8c-1.8,0-3.3,0.7-4.7,2.1c-1.1,1.1-1.9,2.2-2.3,4.2c-0.9-4.5-3.2-6.3-6.9-6.3
					c-0.9,0-1.8,0.2-2.7,0.6c-2,0.9-3.4,2.8-4.2,5.7v-1.4c0-3.2-1.5-4.9-4.5-4.9h-6.9v0.7c1.4,0,2.5,0.4,3.5,1.1
					c1,0.8,1.4,1.7,1.4,2.7v23.6c0,1.1-0.5,2-1.4,2.8c-1,0.8-2.1,1.1-3.5,1.1v0.8h16.3v-0.8c-1.4,0-2.5-0.4-3.5-1.1
					c-1-0.8-1.4-1.7-1.4-2.8V-102c0.1-2.1,0.5-3.5,1.3-4.5c0.7-1,1.5-1.4,2.4-1.4c1,0,1.9,0.5,2.6,1.6c0.7,1,1.1,2.5,1.1,4.4v23.5
					h0.9c1.1,0,1.5,0,2.5,0h6.1v-0.6c-0.8,0-1.5-0.4-2.1-1.1c-0.6-0.7-0.9-1.6-0.9-2.7V-102c0.1-2.1,0.5-3.6,1.2-4.5
					c0.7-1,1.5-1.4,2.4-1.4c1,0,1.9,0.5,2.6,1.6c0.7,1,1.1,2.5,1.1,4.4v23.5h0.9c1.1,0,1.4,0,2.5,0h6.1V-79.1z"/>
			</g>
			<g transform="matrix(1,0,0,1,241.762,313.717)">
				<path class="st0" d="M-204.6-91.9c-1.7-1.8-2.9-4-3.5-6.6c-0.6-2.5-0.9-4.9-0.8-7c0-1.6,0.1-3.2,0.4-4.8
					c0.6-3.2,1.7-5.9,3.5-8.1c1.7-2.2,4.1-3.3,7-3.4c2.5,0.1,4.5,0.9,6.1,2.5c1.6,1.6,2.8,3.7,3.6,6.1c0.8,2.4,1.2,4.9,1.2,7.3v0.2
					h-15.2c0.1,4.6,1,7.9,2.7,10.1c1.7,2.2,3.4,3.3,5.2,3.3c2.5,0,4.4-1.8,5.8-5.4h0.7c-0.8,2.5-2,4.5-3.7,6.1
					c-1.7,1.6-3.8,2.4-6.5,2.5C-200.8-89.1-202.9-90.1-204.6-91.9 M-194.4-113.4c-0.3-2.2-0.8-4.1-1.4-5.5c-0.6-1.5-1.4-2.2-2.3-2.2
					c-0.9,0-1.7,0.7-2.3,2.2c-0.6,1.5-1.1,3.3-1.4,5.5c-0.3,2.2-0.5,4.5-0.5,6.9h8.5C-193.9-108.9-194.1-111.2-194.4-113.4"/>
			</g>
			<g transform="matrix(1,0,0,1,410.256,399.573)">
				<path class="st0" d="M-337.5-185.1c0.6-1.7,1-3.8,1.1-6.2c0.1-2.5,0-4.9-0.4-7.3c-0.4-2.4-0.9-4.4-1.7-6
					c-0.8-1.6-1.8-2.4-2.9-2.4c-1.1,0.1-2,1.1-2.6,2.7c-0.6,1.7-1,3.8-1.1,6.2c-0.1,2.5,0,4.9,0.4,7.3c0.3,2.4,0.9,4.4,1.7,6
					c0.8,1.6,1.8,2.4,2.9,2.4C-339-182.5-338.1-183.4-337.5-185.1 M-337.4-207.2c0.4,0.1,0.8,0.3,1.3,0.5l0.7,0.3
					c2.3,1.4,3.8,3.4,4.7,6.1c0.9,2.6,1.1,5.4,0.7,8.2c-0.5,2.8-1.6,5.3-3.4,7.3c-1.8,2-4.3,3-7.5,3.1c-2.3,0-4.1-0.5-5.4-1.4
					c-0.7,0.6-0.9,1.1-0.7,1.8c0.3,0.6,1.1,1.1,2.7,1.5l9.1,2.1c2.2,0.6,3.8,1.6,4.9,3c1.1,1.4,1.5,3,1.2,4.7
					c-0.3,1.7-1.3,3.1-3.1,4.2c-1.8,1.2-4.6,1.7-8.2,1.7c-6.8-0.2-10.7-2.1-11.8-5.6c-0.4-1.3-0.3-2.3,0.2-3c0.5-0.7,1.1-1,1.9-0.7
					c0.7,0.2,1.3,1.1,1.6,2.7c0.4,2.1,1.4,3.7,2.8,4.6c1.4,0.9,3.1,1.4,5,1.4c2.5,0.1,4.4-0.3,5.7-1.1c1.3-0.9,1.9-1.8,1.8-2.9
					s-1.1-1.9-3.1-2.4l-8.5-2.1c-2.8-0.7-4.7-1.7-5.5-3c-0.8-1.3-0.9-2.6-0.2-3.9c0.7-1.3,1.9-2.4,3.6-3.3c-2-1.5-3.4-3.6-4.1-6.2
					c-0.7-2.6-0.8-5.3-0.3-8c0.5-2.7,1.7-5,3.5-6.9c1.8-1.9,4.2-2.9,7.2-3.1c0.9,0,1.7,0.1,2.4,0.2"/>
			</g>
			<g transform="matrix(1,0,0,1,501.402,313.004)">
				<path class="st0" d="M-409.3-91c-0.8-0.2-1.4-1-1.9-2.3c-0.3-1-0.5-2.1-0.5-3.2c0-0.7,0.1-1.4,0.2-2.1c0.3-2.1,0.9-4,1.8-5.5
					c0.9-1.5,1.8-2.9,2.8-4.2c1.2-1.5,2.2-3.1,2.9-4.8l-0.1,15c0,1.4-0.3,2.7-0.8,3.9c-0.5,1.3-1.3,2.2-2.2,2.7
					c-0.5,0.3-0.9,0.4-1.4,0.4C-408.8-90.9-409.1-91-409.3-91 M-417-109.8h0.6c1.1-3.1,1.4-3.4,2.7-5.5c0.7-1.2,1.6-2.3,2.6-3.3
					c1-1,2.8-1.8,4.2-1.8h0.1c1.2,0.1,2,0.5,2.4,1.3c0.4,0.8,0.6,1.5,0.6,2.3c0,0.2,0,0.5-0.1,0.8c-0.1,1.1-0.4,2.1-0.8,2.9
					c-0.5,1-1.3,1.8-2.2,2.6c-0.9,0.8-1.9,1.6-3,2.3c-1.3,0.9-2.5,1.8-3.7,2.8c-1.2,1-2.2,2.3-3,3.7c-0.8,1.4-1.2,3.2-1.3,5.3v0.1
					c0,1.9,0.5,3.5,1.4,5c1.2,1.9,3,2.9,5.2,2.9c1.1,0,2.2-0.3,3.3-0.8c1.7-0.8,3-2.5,4-5.1v0.9c0,3.2,1.5,4.9,4.5,4.9h6.9v-0.6
					c-1.3,0-2.5-0.4-3.5-1.1c-1-0.8-1.4-1.7-1.4-2.7v-20.6c0-2.7-0.6-4.3-2.1-5.8c-1.6-1.7-2.9-1.8-5.8-1.9h-2.3
					c-1,0-2.1,0.1-3.7,0.2c-0.5,0-1.3,0.1-1.5,0.2c-0.2,0-1.3,0.3-1.4,1.1"/>
			</g>
			<g transform="matrix(1,0,0,1,576.415,300.473)">
				<path class="st0" d="M-468.5-65.1v-0.6c1.3,0,2.5-0.4,3.5-1.1c1-0.8,1.4-1.7,1.4-2.7v-34.5c0-1.1-0.5-2-1.4-2.7
					c-1-0.8-2.1-1.1-3.5-1.1v-0.6h6.9c1.6,0,2.8,0.5,3.5,1.4c0.7,0.9,1,2.1,1,3.5v0.9c0.5-2,1.5-3.5,2.8-4.4
					c1.3-0.9,2.7-1.4,4.2-1.4c2.2,0.1,3.9,1.2,5.2,3.4c1.3,2.2,2.1,4.5,2.4,6.8c0.3,2.4,0.4,4.3,0.4,5.8c0,1.7-0.1,3.4-0.4,5.2
					c-0.4,3.2-1.3,5.9-2.6,8.1c-1.3,2.2-3.1,3.3-5.2,3.4h-0.1c-1.4,0-2.7-0.4-4-1.3c-1.3-0.9-2.2-2.3-2.7-4.2v11.8
					c0,1.1,0.5,2,1.4,2.7c1,0.8,2.1,1.1,3.5,1.1v0.6H-468.5z M-449.9-82.7c0.6-2.6,0.9-4.9,0.9-6.7c0-1.8,0-2.9,0-3.2
					c0-3.1-0.2-5.9-0.7-8.5c-0.5-2.8-1.3-4.4-2.4-5.1c-0.3-0.2-0.7-0.2-1-0.2c-1.3,0-2.4,0.9-3.2,2.8c-0.6,1.3-0.8,3-0.8,5.1V-86
					c0,2,0.2,3.6,0.7,4.8c0.5,1.2,1,2,1.6,2.4c0.6,0.4,1.2,0.6,1.7,0.6C-451.6-78.1-450.5-79.7-449.9-82.7"/>
			</g>
			<g transform="matrix(1,0,0,1,1095.89,274.334)">
				<path class="st0" d="M-878-50.4c-1.3,0-2.5-0.4-3.4-1.1c-1-0.8-1.4-1.7-1.4-2.7v-29.5c0-1.4-0.3-2.6-1-3.5
					c-0.7-0.9-1.8-1.4-3.5-1.4h-6.9v0.7c1.3,0,2.5,0.4,3.5,1.1c1,0.8,1.4,1.7,1.4,2.7v29.8c0,1.1-0.5,2-1.4,2.7
					c-1,0.8-2.1,1.1-3.5,1.1v0.6h16.3V-50.4z"/>
			</g>
			<g transform="matrix(1,0,0,1,931.928,313.717)">
				<path class="st0" d="M-748.7-91.9c-1.7-1.8-2.9-4-3.5-6.6c-0.6-2.5-0.9-4.9-0.8-7c0-1.6,0.1-3.2,0.4-4.8
					c0.6-3.2,1.7-5.9,3.5-8.1c1.7-2.2,4.1-3.3,7-3.4c2.5,0.1,4.5,0.9,6.1,2.5c1.6,1.6,2.8,3.7,3.6,6.1c0.8,2.4,1.2,4.9,1.2,7.3v0.2
					h-15.2c0.1,4.6,1,7.9,2.7,10.1c1.7,2.2,3.4,3.3,5.2,3.3c2.5,0,4.4-1.8,5.8-5.4h0.7c-0.8,2.5-2,4.5-3.7,6.1s-3.8,2.4-6.5,2.5
					C-744.9-89.1-747-90.1-748.7-91.9 M-738.5-113.4c-0.3-2.2-0.8-4.1-1.4-5.5c-0.6-1.5-1.4-2.2-2.3-2.2c-0.9,0-1.7,0.7-2.3,2.2
					c-0.6,1.5-1.1,3.3-1.4,5.5c-0.3,2.2-0.5,4.5-0.5,6.9h8.5C-738-108.9-738.2-111.2-738.5-113.4"/>
			</g>
			<g transform="matrix(1,0,0,1,787.445,303.946)">
				<path class="st0" d="M-634.8-79.9c-1.3,0-2.5-0.4-3.5-1.1c-1-0.8-1.4-1.7-1.4-2.7v-23.3c0-1.4-0.3-2.6-1-3.5
					c-0.7-0.9-1.8-1.4-3.5-1.4h-6.9v0.7c1.3,0,2.5,0.4,3.5,1.1c1,0.8,1.4,1.7,1.4,2.7v23.6c0,1.1-0.5,2-1.4,2.7
					c-1,0.8-2.1,1.1-3.5,1.1v0.6h16.3V-79.9z M-608-79.9c-2.2,0-3.8-1.2-4.9-3.6l-6.7-15.8l4.2-8.2c0.6-1.2,1.5-2.1,2.7-2.7
					c1.2-0.6,2.4-1,3.6-1v-0.7h-10.5v0.7c0.9,0,1.6,0.3,2.1,0.8c0.5,0.5,0.8,1,0.9,1.5c0.1,0.5,0.1,0.8,0.1,0.9
					c0,0.6-0.1,1.1-0.4,1.7l-3.2,6l-3.4-8c-0.5-1.3-1-2.2-1.5-2.7c-0.5-0.5-1.5-0.8-2.8-0.8h-7.5l0,0.7c2.2,0,3.9,1.2,4.9,3.6
					l6.7,15.9l-4.2,8.3c-0.6,1.2-1.5,2.1-2.7,2.7c-1.2,0.6-3.2,0.9-4.4,0.9v0.6h11v-0.6c-0.9,0-1.6-0.3-2.1-0.8
					c-0.5-0.5-0.7-1-0.8-1.4c0-0.4,0-0.7,0-0.8c0-0.6,0.1-1.2,0.4-1.8l3.3-6.1l3.3,8c0.5,1.3,1,2.2,1.5,2.7c0.5,0.5,1.4,0.8,2.8,0.8
					h7.5L-608-79.9z"/>
			</g>
			<g transform="matrix(1,0,0,1,759.246,260.556)">
				<path class="st0" d="M-612.6-72.4c0.6-0.7,0.9-1.4,0.9-2.4c0-0.9-0.3-1.7-0.9-2.4c-0.6-0.7-1.4-1-2.3-1c-0.9,0-1.7,0.3-2.3,1
					c-0.6,0.7-1,1.4-1,2.4c0,0.9,0.3,1.7,1,2.4c0.6,0.7,1.4,1,2.3,1C-614-71.4-613.2-71.7-612.6-72.4"/>
			</g>
		</g>
	</g>
</g>
</svg>
